# File created by Blade
# Date/Time:  Thu Jan 22 15:49:58 2015
# Frame Rate: 120.000 fps
#------------------------------------------------------
:FULLY-SPECIFIED
:DEGREES
960
root 2.732692 37.111090 5.370572 -1.359817 -3.543377 1.289993
RightUpLeg 10.395925 -6.432694 -3.608863
RightLeg -5.616493 -0.000000 0.000000
RightFoot -10.732651 -12.184486 16.189973
RightToeBase 12.989046 -0.000000 -0.000000
LeftUpLeg 9.245472 6.131550 3.649009
LeftLeg -3.219907 -0.000000 0.000000
LeftFoot -7.459080 7.527706 -17.453481
LeftToeBase 8.420503 -0.000000 -0.000000
Spine 0.176398 -5.005372 -3.783278
RightShoulder -19.727447 7.215347 -40.582549
RightArm 166.321567 48.459484 112.566207
RightForeArm 62.012891 -0.000000 142.755948
RightHand 22.113244 -0.000000 8.000905
RightHandThumb1 -24.326973 -0.000000 -32.862282
LeftShoulder -29.155996 16.047939 39.084117
LeftArm 154.966282 -66.091592 -137.774342
LeftForeArm -42.076187 -0.000000 108.150872
LeftHand -12.538813 0.000000 -9.056970
LeftHandThumb1 -26.253704 0.000000 33.147579
Head 20.113155 17.175607 16.922024
961
root 2.728586 37.110852 5.374148 -1.348964 -3.632762 1.282289
RightUpLeg 10.354064 -6.454020 -3.603832
RightLeg -5.572731 -0.000000 0.000000
RightFoot -10.733766 -12.090095 16.161543
RightToeBase 13.004670 -0.000000 -0.000000
LeftUpLeg 9.258393 6.183913 3.659828
LeftLeg -3.229014 -0.000000 0.000000
LeftFoot -7.468441 7.571739 -17.476124
LeftToeBase 8.374301 -0.000000 -0.000000
Spine 0.165911 -4.981759 -3.819661
RightShoulder -19.738272 7.297179 -40.564305
RightArm 166.374634 48.536268 112.555213
RightForeArm 62.022716 -0.000000 142.718054
RightHand 22.094469 -0.000000 7.956117
RightHandThumb1 -24.326973 -0.000000 -32.862282
LeftShoulder -29.154347 16.064155 39.018109
LeftArm 155.146627 -65.966776 -137.895689
LeftForeArm -42.070066 -0.000000 108.153921
LeftHand -12.570648 -0.000000 -8.963444
LeftHandThumb1 -26.253704 0.000000 33.147579
Head 19.948989 17.311138 16.925480
962
root 2.724037 37.110982 5.376974 -1.334910 -3.711545 1.267854
RightUpLeg 10.326010 -6.436679 -3.583772
RightLeg -5.560769 -0.000000 0.000000
RightFoot -10.717478 -12.052236 16.130352
RightToeBase 12.989081 -0.000000 -0.000000
LeftUpLeg 9.259792 6.243420 3.679783
LeftLeg -3.222221 -0.000000 0.000000
LeftFoot -7.489897 7.594887 -17.489268
LeftToeBase 8.370066 -0.000000 -0.000000
Spine 0.157060 -4.976046 -3.843718
RightShoulder -19.767335 7.372386 -40.550364
RightArm 166.420931 48.638479 112.534170
RightForeArm 62.006786 -0.000000 142.696138
RightHand 22.125837 -0.000000 7.814283
RightHandThumb1 -24.326973 -0.000000 -32.862282
LeftShoulder -29.144694 16.100549 38.931619
LeftArm 155.420671 -65.836501 -138.106242
LeftForeArm -42.092610 0.000000 108.155570
LeftHand -12.573338 -0.000000 -8.913648
LeftHandThumb1 -26.253704 0.000000 33.147579
Head 19.757645 17.498830 16.893806
963
root 2.719514 37.110820 5.378852 -1.313435 -3.787507 1.252424
RightUpLeg 10.290910 -6.408491 -3.563911
RightLeg -5.548942 -0.000000 0.000000
RightFoot -10.711351 -12.003599 16.142529
RightToeBase 13.050563 -0.000000 -0.000000
LeftUpLeg 9.253982 6.267053 3.697142
LeftLeg -3.217478 -0.000000 0.000000
LeftFoot -7.525412 7.635274 -17.511947
LeftToeBase 8.342886 -0.000000 -0.000000
Spine 0.143604 -4.987413 -3.863246
RightShoulder -19.816004 7.396195 -40.517835
RightArm 166.500435 48.702864 112.553636
RightForeArm 62.099150 0.000000 142.686279
RightHand 22.161005 0.000000 7.799897
RightHandThumb1 -24.326973 -0.000000 -32.862282
LeftShoulder -29.147408 16.120958 38.879517
LeftArm 155.649461 -65.743748 -138.325823
LeftForeArm -42.097779 0.000000 108.187482
LeftHand -12.586574 -0.000000 -8.909364
LeftHandThumb1 -26.253704 0.000000 33.147579
Head 19.565992 17.681751 16.861650
964
root 2.713665 37.112089 5.378380 -1.283824 -3.872505 1.214774
RightUpLeg 10.243269 -6.342724 -3.510122
RightLeg -5.538932 -0.000000 0.000000
RightFoot -10.677286 -12.005868 16.131457
RightToeBase 13.009445 -0.000000 -0.000000
LeftUpLeg 9.236505 6.324271 3.739195
LeftLeg -3.210058 -0.000000 0.000000
LeftFoot -7.529908 7.654556 -17.505239
LeftToeBase 8.355857 -0.000000 -0.000000
Spine 0.146130 -4.990954 -3.833823
RightShoulder -19.921659 7.431844 -40.530283
RightArm 166.545650 48.725785 112.536129
RightForeArm 62.125458 -0.000000 142.667566
RightHand 22.225521 0.000000 7.744195
RightHandThumb1 -24.326973 -0.000000 -32.862282
LeftShoulder -29.176325 16.053408 38.803300
LeftArm 155.730618 -65.678866 -138.389052
LeftForeArm -42.134840 -0.000000 108.208426
LeftHand -12.560422 0.000000 -8.931772
LeftHandThumb1 -26.253704 0.000000 33.147579
Head 19.418975 18.054265 16.863712
965
root 2.710415 37.112085 5.382265 -1.278201 -3.956778 1.197211
RightUpLeg 10.226031 -6.317657 -3.490424
RightLeg -5.530760 -0.000000 0.000000
RightFoot -10.666093 -11.968959 16.144391
RightToeBase 12.964309 -0.000000 -0.000000
LeftUpLeg 9.250413 6.384576 3.761472
LeftLeg -3.204644 -0.000000 0.000000
LeftFoot -7.562731 7.676213 -17.497450
LeftToeBase 8.348617 -0.000000 -0.000000
Spine 0.141414 -4.988066 -3.842893
RightShoulder -19.947717 7.474804 -40.524546
RightArm 166.623974 48.809175 112.555226
RightForeArm 62.199175 0.000000 142.644402
RightHand 22.308531 -0.000000 7.735341
RightHandThumb1 -24.326973 -0.000000 -32.862282
LeftShoulder -29.211538 15.994717 38.772002
LeftArm 155.628703 -65.596521 -138.264800
LeftForeArm -42.093377 -0.000000 108.231354
LeftHand -12.575597 -0.000000 -8.831356
LeftHandThumb1 -26.253704 0.000000 33.147579
Head 19.291758 18.305192 16.920480
966
root 2.705440 37.110964 5.385306 -1.264783 -4.032488 1.183105
RightUpLeg 10.206086 -6.290249 -3.474671
RightLeg -5.525600 -0.000000 0.000000
RightFoot -10.649800 -11.909951 16.112975
RightToeBase 12.955639 -0.000000 -0.000000
LeftUpLeg 9.258985 6.439562 3.781259
LeftLeg -3.209271 -0.000000 0.000000
LeftFoot -7.587919 7.692403 -17.538699
LeftToeBase 8.323835 -0.000000 -0.000000
Spine 0.137193 -5.021084 -3.857623
RightShoulder -19.974997 7.487490 -40.480846
RightArm 166.780593 48.828039 112.630674
RightForeArm 62.184032 -0.000000 142.588084
RightHand 22.256456 0.000000 7.799161
RightHandThumb1 -24.326973 -0.000000 -32.862282
LeftShoulder -29.165346 16.099049 38.757992
LeftArm 156.087145 -65.512274 -138.817714
LeftForeArm -42.105487 0.000000 108.310253
LeftHand -12.599085 -0.000000 -8.713264
LeftHandThumb1 -26.253704 0.000000 33.147579
Head 19.103219 18.542499 16.884936
967
root 2.700721 37.111102 5.386767 -1.247180 -4.114820 1.168046
RightUpLeg 10.171160 -6.262107 -3.450721
RightLeg -5.511460 -0.000000 0.000000
RightFoot -10.646905 -11.881914 16.108844
RightToeBase 12.993693 -0.000000 -0.000000
LeftUpLeg 9.257222 6.485014 3.800730
LeftLeg -3.203995 -0.000000 0.000000
LeftFoot -7.597091 7.726803 -17.504541
LeftToeBase 8.302704 -0.000000 -0.000000
Spine 0.120915 -5.040267 -3.876451
RightShoulder -20.001969 7.565303 -40.466642
RightArm 166.801663 48.896469 112.601895
RightForeArm 62.194545 -0.000000 142.543184
RightHand 22.213172 -0.000000 7.839675
RightHandThumb1 -24.326973 -0.000000 -32.862282
LeftShoulder -29.145249 16.129584 38.695540
LeftArm 156.397568 -65.413703 -139.083038
LeftForeArm -42.102149 -0.000000 108.319536
LeftHand -12.620327 -0.000000 -8.691890
LeftHandThumb1 -26.253704 0.000000 33.147579
Head 18.942831 18.752052 16.876152
968
root 2.697075 37.110990 5.389275 -1.233023 -4.182815 1.159377
RightUpLeg 10.149534 -6.225570 -3.433800
RightLeg -5.513566 -0.000000 0.000000
RightFoot -10.638347 -11.875495 16.093369
RightToeBase 12.992492 -0.000000 -0.000000
LeftUpLeg 9.253532 6.524384 3.812214
LeftLeg -3.191198 -0.000000 0.000000
LeftFoot -7.632663 7.744979 -17.534055
LeftToeBase 8.442442 -0.000000 -0.000000
Spine 0.109480 -5.084026 -3.915218
RightShoulder -20.020264 7.653157 -40.430466
RightArm 166.826151 48.953818 112.591766
RightForeArm 62.283987 -0.000000 142.504637
RightHand 22.226939 -0.000000 7.989177
RightHandThumb1 -24.326973 -0.000000 -32.862282
LeftShoulder -29.146908 16.112588 38.674543
LeftArm 156.585496 -65.353796 -139.218109
LeftForeArm -42.119419 -0.000000 108.321364
LeftHand -12.645979 -0.000000 -8.655873
LeftHandThumb1 -26.253704 0.000000 33.147579
Head 18.793338 18.919328 16.935928
969
root 2.693783 37.111423 5.393159 -1.225253 -4.257649 1.148505
RightUpLeg 10.134573 -6.168163 -3.419684
RightLeg -5.504477 -0.000000 0.000000
RightFoot -10.626964 -11.846636 16.086094
RightToeBase 12.978923 -0.000000 -0.000000
LeftUpLeg 9.264943 6.561846 3.824195
LeftLeg -3.190782 -0.000000 0.000000
LeftFoot -7.633983 7.779184 -17.544730
LeftToeBase 8.342289 -0.000000 -0.000000
Spine 0.100581 -5.119532 -3.932680
RightShoulder -20.047397 7.712890 -40.399512
RightArm 166.864494 49.004503 112.573414
RightForeArm 62.331416 -0.000000 142.481727
RightHand 22.235834 0.000000 7.963102
RightHandThumb1 -24.326973 -0.000000 -32.862282
LeftShoulder -29.147722 16.083217 38.647308
LeftArm 156.708828 -65.308392 -139.318728
LeftForeArm -42.106454 -0.000000 108.338218
LeftHand -12.655075 0.000000 -8.609952
LeftHandThumb1 -26.253704 0.000000 33.147579
Head 18.629830 19.043627 16.891368
970
root 2.690437 37.111748 5.395931 -1.210311 -4.312375 1.133122
RightUpLeg 10.115239 -6.140151 -3.400428
RightLeg -5.503865 -0.000000 0.000000
RightFoot -10.612856 -11.824580 16.100008
RightToeBase 12.994060 -0.000000 -0.000000
LeftUpLeg 9.260490 6.576504 3.839407
LeftLeg -3.182395 -0.000000 0.000000
LeftFoot -7.661141 7.818740 -17.543563
LeftToeBase 8.385988 -0.000000 -0.000000
Spine 0.082726 -5.166194 -3.952114
RightShoulder -20.084808 7.747460 -40.362277
RightArm 166.903171 49.058379 112.569475
RightForeArm 62.412506 -0.000000 142.481650
RightHand 22.265164 -0.000000 7.933301
RightHandThumb1 -24.326973 -0.000000 -32.862282
LeftShoulder -29.157412 16.034414 38.641190
LeftArm 156.699480 -65.229576 -139.276252
LeftForeArm -42.038425 -0.000000 108.349160
LeftHand -12.690730 -0.000000 -8.612147
LeftHandThumb1 -26.253704 0.000000 33.147579
Head 18.439537 19.109451 16.833910
